<svg width="16" height="12" viewBox="0 0 16 12" fill="none" xmlns="http://www.w3.org/2000/svg">
<g clip-path="url(#clip0_1329_2)">
<path d="M8 4.125C6.96447 4.125 6.125 4.96447 6.125 6C6.125 7.03553 6.96447 7.875 8 7.875C9.03554 7.875 9.875 7.03553 9.875 6C9.875 4.96447 9.03554 4.125 8 4.125Z" fill="#585858"/>
<path fill-rule="evenodd" clip-rule="evenodd" d="M7.99967 0.583008C5.8182 0.583008 3.85635 1.45916 2.44269 2.54413C1.73494 3.08733 1.1542 3.69061 0.74675 4.27774C0.347059 4.85368 0.0830078 5.45928 0.0830078 5.99967C0.0830078 6.54006 0.347059 7.14566 0.74675 7.7216C1.1542 8.30873 1.73494 8.91201 2.44269 9.45521C3.85635 10.5402 5.8182 11.4164 7.99967 11.4164C10.1812 11.4164 12.143 10.5402 13.5567 9.45521C14.2644 8.91201 14.8452 8.30873 15.2526 7.7216C15.6523 7.14566 15.9164 6.54006 15.9164 5.99967C15.9164 5.45928 15.6523 4.85368 15.2526 4.27774C14.8452 3.69061 14.2644 3.08733 13.5567 2.54413C12.143 1.45916 10.1812 0.583008 7.99967 0.583008ZM4.87467 5.99967C4.87467 4.27378 6.27379 2.87467 7.99967 2.87467C9.72556 2.87467 11.1247 4.27378 11.1247 5.99967C11.1247 7.72556 9.72556 9.12467 7.99967 9.12467C6.27379 9.12467 4.87467 7.72556 4.87467 5.99967Z" fill="#585858"/>
</g>
<defs>
<clipPath id="clip0_1329_2">
<rect width="16" height="12" fill="white"/>
</clipPath>
</defs>
</svg>
