<svg width="18" height="17" viewBox="0 0 18 17" fill="none" xmlns="http://www.w3.org/2000/svg">
<path d="M16.572 1.43507C16.1209 0.980204 15.5848 0.61929 14.9945 0.373028C14.4042 0.126766 13.7714 0 13.1322 0C12.4931 0 11.8602 0.126766 11.27 0.373028C10.6797 0.61929 10.1436 0.980204 9.69245 1.43507L9 2.13984L8.30755 1.43507C7.85639 0.980204 7.32031 0.61929 6.73003 0.373028C6.13976 0.126766 5.5069 0 4.86776 0C4.22862 0 3.59577 0.126766 3.0055 0.373028C2.41522 0.61929 1.87914 0.980204 1.42798 1.43507C-0.478513 3.3506 -0.595421 6.58532 1.80568 9.04298L9 16.2714L16.1943 9.04298C18.5954 6.58532 18.4785 3.3506 16.572 1.43507Z" fill="#EA4335"/>
</svg>
