<svg width="20" height="21" viewBox="0 0 20 21" fill="none" xmlns="http://www.w3.org/2000/svg">
<g clip-path="url(#clip0_1330_35)">
<path d="M10.002 2.26989C12.6744 2.26989 12.9908 2.28161 14.0418 2.32849C15.0186 2.37147 15.546 2.53557 15.8976 2.67231C16.3626 2.85203 16.6986 3.07083 17.0463 3.41855C17.3979 3.77018 17.6128 4.10227 17.7925 4.5672C17.9293 4.91883 18.0934 5.45019 18.1364 6.42303C18.1832 7.47793 18.195 7.7944 18.195 10.4629C18.195 13.1353 18.1832 13.4518 18.1364 14.5027C18.0934 15.4795 17.9293 16.0069 17.7925 16.3586C17.6128 16.8235 17.394 17.1595 17.0463 17.5072C16.6947 17.8589 16.3626 18.0738 15.8976 18.2535C15.546 18.3902 15.0147 18.5543 14.0418 18.5973C12.9869 18.6442 12.6704 18.6559 10.002 18.6559C7.32956 18.6559 7.01309 18.6442 5.9621 18.5973C4.98535 18.5543 4.4579 18.3902 4.10627 18.2535C3.64134 18.0738 3.30533 17.855 2.95761 17.5072C2.60598 17.1556 2.39109 16.8235 2.21137 16.3586C2.07462 16.0069 1.91053 15.4756 1.86755 14.5027C1.82067 13.4479 1.80895 13.1314 1.80895 10.4629C1.80895 7.79049 1.82067 7.47402 1.86755 6.42303C1.91053 5.44628 2.07462 4.91883 2.21137 4.5672C2.39109 4.10227 2.60988 3.76627 2.95761 3.41855C3.30924 3.06692 3.64134 2.85203 4.10627 2.67231C4.4579 2.53557 4.98926 2.37147 5.9621 2.32849C7.01309 2.28161 7.32956 2.26989 10.002 2.26989ZM10.002 0.46875C7.28658 0.46875 6.94667 0.480471 5.88006 0.527355C4.81735 0.57424 4.08674 0.746148 3.4538 0.99229C2.79351 1.25016 2.23481 1.59007 1.68002 2.14877C1.12131 2.70357 0.781403 3.26227 0.52354 3.91865C0.277398 4.55549 0.105489 5.28219 0.0586052 6.34489C0.011721 7.41541 0 7.75532 0 10.4707C0 13.1861 0.011721 13.526 0.0586052 14.5926C0.105489 15.6553 0.277398 16.3859 0.52354 17.0189C0.781403 17.6791 1.12131 18.2379 1.68002 18.7926C2.23481 19.3474 2.79351 19.6913 3.44989 19.9452C4.08674 20.1914 4.81344 20.3633 5.87615 20.4101C6.94276 20.457 7.28267 20.4688 9.99805 20.4688C12.7134 20.4688 13.0533 20.457 14.1199 20.4101C15.1827 20.3633 15.9133 20.1914 16.5462 19.9452C17.2026 19.6913 17.7613 19.3474 18.3161 18.7926C18.8709 18.2379 19.2147 17.6791 19.4686 17.0228C19.7148 16.3859 19.8867 15.6592 19.9336 14.5965C19.9805 13.5299 19.9922 13.19 19.9922 10.4746C19.9922 7.75924 19.9805 7.41932 19.9336 6.35272C19.8867 5.29 19.7148 4.5594 19.4686 3.92646C19.2225 3.26227 18.8826 2.70357 18.3239 2.14877C17.7691 1.59397 17.2104 1.25015 16.554 0.996197C15.9172 0.750055 15.1905 0.578147 14.1278 0.531262C13.0572 0.480471 12.7173 0.46875 10.002 0.46875Z" fill="url(#paint0_linear_1330_35)"/>
<path d="M10.001 5.33301C7.16451 5.33301 4.86328 7.63424 4.86328 10.4707C4.86328 13.3072 7.16451 15.6085 10.001 15.6085C12.8375 15.6085 15.1387 13.3072 15.1387 10.4707C15.1387 7.63424 12.8375 5.33301 10.001 5.33301ZM10.001 13.8034C8.1608 13.8034 6.66832 12.3109 6.66832 10.4707C6.66832 8.63053 8.1608 7.13805 10.001 7.13805C11.8412 7.13805 13.3337 8.63053 13.3337 10.4707C13.3337 12.3109 11.8412 13.8034 10.001 13.8034Z" fill="url(#paint1_linear_1330_35)"/>
<path d="M16.5415 5.13011C16.5415 5.79431 16.0023 6.32957 15.342 6.32957C14.6778 6.32957 14.1426 5.7904 14.1426 5.13011C14.1426 4.46592 14.6817 3.93066 15.342 3.93066C16.0023 3.93066 16.5415 4.46983 16.5415 5.13011Z" fill="url(#paint2_linear_1330_35)"/>
</g>
<defs>
<linearGradient id="paint0_linear_1330_35" x1="13.0187" y1="35.3815" x2="41.4133" y2="7.40885" gradientUnits="userSpaceOnUse">
<stop stop-color="white"/>
<stop offset="0.147864" stop-color="#F6640E"/>
<stop offset="0.443974" stop-color="#BA03A7"/>
<stop offset="0.733337" stop-color="#6A01B9"/>
<stop offset="1" stop-color="#6B01B9"/>
</linearGradient>
<linearGradient id="paint1_linear_1330_35" x1="11.5546" y1="23.2702" x2="26.143" y2="8.89295" gradientUnits="userSpaceOnUse">
<stop stop-color="white"/>
<stop offset="0.147864" stop-color="#F6640E"/>
<stop offset="0.443974" stop-color="#BA03A7"/>
<stop offset="0.733337" stop-color="#6A01B9"/>
<stop offset="1" stop-color="#6B01B9"/>
</linearGradient>
<linearGradient id="paint2_linear_1330_35" x1="15.7047" y1="8.11828" x2="19.1105" y2="4.76177" gradientUnits="userSpaceOnUse">
<stop stop-color="white"/>
<stop offset="0.147864" stop-color="#F6640E"/>
<stop offset="0.443974" stop-color="#BA03A7"/>
<stop offset="0.733337" stop-color="#6A01B9"/>
<stop offset="1" stop-color="#6B01B9"/>
</linearGradient>
<clipPath id="clip0_1330_35">
<rect width="20" height="21" fill="white"/>
</clipPath>
</defs>
</svg>
