<svg width="20" height="18" viewBox="0 0 20 18" fill="none" xmlns="http://www.w3.org/2000/svg">
<g clip-path="url(#clip0_1330_9)">
<path d="M17.8071 3.68678C18.1053 3.9324 18.3535 4.23701 18.5339 4.58381C18.5909 4.69354 18.5481 4.8264 18.443 4.89151L12.177 8.77044C10.8332 9.60236 9.1386 9.61981 7.77788 8.81575L1.47005 5.0884C1.36814 5.02818 1.32136 4.90422 1.36729 4.79512C1.5499 4.36134 1.83448 3.98308 2.1905 3.68904L2.19016 3.68606L2.20243 3.67924C2.46587 3.46401 2.7679 3.29465 3.09631 3.18264L7.20618 0.899377C8.94281 -0.0654167 11.0545 -0.0654177 12.7911 0.899376L16.8962 3.17996C17.2303 3.29285 17.5373 3.46505 17.8044 3.68454L17.8071 3.68678Z" fill="#333333"/>
<path d="M0.989157 6.95399C1.00734 6.77375 1.20634 6.67457 1.36231 6.76673L7.01493 10.1069C8.85591 11.1947 11.1485 11.1711 12.9667 10.0456L18.6112 6.55136C18.7665 6.45526 18.9688 6.55261 18.9885 6.73413C19.2685 9.32159 19.2148 11.9361 18.8272 14.5131C18.6287 15.8333 17.5513 16.8453 16.2214 16.9609L14.7111 17.0922C11.5765 17.3647 8.42413 17.3647 5.28949 17.0922L3.77926 16.9609C2.44932 16.8453 1.37191 15.8333 1.17339 14.5131C0.796832 12.009 0.735421 9.46962 0.989157 6.95399Z" fill="#333333"/>
</g>
<defs>
<clipPath id="clip0_1330_9">
<rect width="20" height="18" fill="white"/>
</clipPath>
</defs>
</svg>
