<svg width="22" height="21" viewBox="0 0 22 21" fill="none" xmlns="http://www.w3.org/2000/svg">
<g clip-path="url(#clip0_1330_20)">
<path d="M20.7948 17.4283C21.3487 12.2814 21.3487 7.09282 20.7948 1.94593C20.6215 0.336063 18.7013 -0.479419 17.3575 0.486178L12.228 4.17209C10.611 5.33398 8.64989 5.96141 6.63513 5.96141H1.84863C1.15828 5.96141 0.598633 6.5024 0.598633 7.16974V12.2045C0.598633 12.8718 1.15827 13.4128 1.84863 13.4128H6.63512C8.64989 13.4128 10.611 14.0402 12.228 15.2021L17.3575 18.888C18.7013 19.8536 20.6215 19.0382 20.7948 17.4283Z" fill="white"/>
<path d="M7.36538 16.0939C7.43718 15.8227 7.37529 15.5346 7.1977 15.3135C7.02011 15.0923 6.74676 14.9629 6.45716 14.9629H3.95716C3.60206 14.9629 3.27743 15.1569 3.11862 15.4639L1.86862 17.8805C1.65516 18.2932 1.79655 18.7951 2.19702 19.0462L4.86449 20.7185C5.11775 20.8773 5.43461 20.9085 5.71576 20.8023C5.99692 20.6961 6.208 20.4655 6.28284 20.1828L7.36538 16.0939Z" fill="white"/>
</g>
<defs>
<clipPath id="clip0_1330_20">
<rect width="22" height="21" fill="white"/>
</clipPath>
</defs>
</svg>
