<svg width="14" height="20" viewBox="0 0 14 20" fill="none" xmlns="http://www.w3.org/2000/svg">
<g clip-path="url(#clip0_1330_18)">
<path d="M11.1311 1.18603C8.40106 0.728355 5.59925 0.728355 2.8693 1.18603C1.87196 1.35323 1.07769 2.1189 0.877723 3.11167C-0.038397 7.65976 -0.088383 12.3398 0.730387 16.9065L1.06373 18.7657C1.16652 19.339 1.86543 19.5681 2.28769 19.167L6.3114 15.3445C6.69737 14.9778 7.30294 14.9778 7.6889 15.3445L11.7127 19.167C12.1349 19.5681 12.8338 19.339 12.9366 18.7657L13.27 16.9065C14.0887 12.3399 14.0388 7.65976 13.1226 3.11167C12.9227 2.1189 12.1284 1.35323 11.1311 1.18603Z" fill="#333333"/>
</g>
<defs>
<clipPath id="clip0_1330_18">
<rect width="14" height="20" fill="white"/>
</clipPath>
</defs>
</svg>
