<svg width="18" height="18" viewBox="0 0 18 18" fill="none" xmlns="http://www.w3.org/2000/svg">
<g clip-path="url(#clip0_1330_12)">
<path fill-rule="evenodd" clip-rule="evenodd" d="M11.3854 12.446C8.73512 14.5687 4.85568 14.4016 2.3989 11.9448C-0.237135 9.30881 -0.237135 5.03495 2.3989 2.39891C5.03494 -0.237135 9.3088 -0.237135 11.9448 2.39891C14.4016 4.85568 14.5687 8.73512 12.446 11.3854L17.6017 16.541C17.8946 16.8339 17.8946 17.3088 17.6017 17.6017C17.3088 17.8946 16.8339 17.8946 16.541 17.6017L11.3854 12.446ZM3.45956 10.8842C1.40931 8.83393 1.40931 5.50981 3.45956 3.45956C5.50981 1.40931 8.83393 1.40931 10.8842 3.45956C12.9329 5.50831 12.9344 8.82906 10.8887 10.8797C10.8872 10.8812 10.8856 10.8826 10.8841 10.8842C10.8826 10.8857 10.8811 10.8872 10.8797 10.8887C8.82906 12.9344 5.50831 12.9329 3.45956 10.8842Z" fill="#333333"/>
</g>
<defs>
<clipPath id="clip0_1330_12">
<rect width="18" height="18" fill="white"/>
</clipPath>
</defs>
</svg>
