<svg width="20" height="17" viewBox="0 0 20 17" fill="none" xmlns="http://www.w3.org/2000/svg">
<g clip-path="url(#clip0_1330_26)">
<path d="M8 0.21875C5.92893 0.21875 4.25 1.89769 4.25 3.96876C4.25 6.03981 5.92893 7.71875 8 7.71875C10.0711 7.71875 11.75 6.03981 11.75 3.96876C11.75 1.89769 10.0711 0.21875 8 0.21875Z" fill="#52CCB3"/>
<path d="M4 9.71875C1.92893 9.71875 0.25 11.3977 0.25 13.4688V14.657C0.25 15.4103 0.795884 16.0525 1.53927 16.1739C5.8181 16.8725 10.1819 16.8725 14.4607 16.1739C15.2041 16.0525 15.75 15.4103 15.75 14.657V13.4688C15.75 11.3977 14.0711 9.71875 12 9.71875H11.6591C11.4746 9.71875 11.2913 9.74792 11.1159 9.80519L10.2504 10.0878C8.78813 10.5653 7.21187 10.5653 5.74959 10.0878L4.88407 9.80519C4.70869 9.74792 4.52536 9.71875 4.34087 9.71875H4Z" fill="#52CCB3"/>
<path d="M16.5 2.71875C16.9142 2.71875 17.25 3.05454 17.25 3.46876V5.21876H19C19.4142 5.21876 19.75 5.55454 19.75 5.96876C19.75 6.38297 19.4142 6.71876 19 6.71876H17.25V8.46876C17.25 8.88297 16.9142 9.21876 16.5 9.21876C16.0858 9.21876 15.75 8.88297 15.75 8.46876V6.71875H14C13.5858 6.71875 13.25 6.38297 13.25 5.96875C13.25 5.55454 13.5858 5.21875 14 5.21875H15.75V3.46875C15.75 3.05454 16.0858 2.71875 16.5 2.71875Z" fill="#52CCB3"/>
</g>
<defs>
<clipPath id="clip0_1330_26">
<rect width="20" height="17" fill="white"/>
</clipPath>
</defs>
</svg>
