<svg width="21" height="15" viewBox="0 0 21 15" fill="none" xmlns="http://www.w3.org/2000/svg">
<g clip-path="url(#clip0_1330_32)">
<path d="M20.574 2.62382C20.4609 2.19834 20.2381 1.81001 19.9278 1.4977C19.6175 1.1854 19.2306 0.960079 18.8058 0.844283C17.2422 0.423828 10.9922 0.423828 10.9922 0.423828C10.9922 0.423828 4.74219 0.423828 3.17855 0.844283C2.7538 0.960079 2.3669 1.1854 2.05659 1.4977C1.74628 1.81001 1.52344 2.19834 1.41037 2.62382C0.992188 4.19428 0.992188 7.46928 0.992188 7.46928C0.992188 7.46928 0.992188 10.7442 1.41037 12.3147C1.52344 12.7402 1.74628 13.1285 2.05659 13.4408C2.3669 13.7531 2.7538 13.9784 3.17855 14.0942C4.74219 14.5147 10.9922 14.5147 10.9922 14.5147C10.9922 14.5147 17.2422 14.5147 18.8058 14.0942C19.2306 13.9784 19.6175 13.7531 19.9278 13.4408C20.2381 13.1285 20.4609 12.7402 20.574 12.3147C20.9922 10.7442 20.9922 7.46928 20.9922 7.46928C20.9922 7.46928 20.9922 4.19428 20.574 2.62382Z" fill="#FF0302"/>
<path d="M8.94629 10.4438V4.49609L14.1736 7.46995L8.94629 10.4438Z" fill="#FEFEFE"/>
</g>
<defs>
<clipPath id="clip0_1330_32">
<rect width="21" height="15" fill="white"/>
</clipPath>
</defs>
</svg>
